<svg width="64" height="64" viewBox="0 0 64 64" fill="none" xmlns="http://www.w3.org/2000/svg">
<g clip-path="url(#clip0_71_841)">
<path d="M53.2228 20.314C53.2561 20.7927 53.2561 21.2713 53.2561 21.7544C53.2561 36.4743 41.9899 53.4508 21.3893 53.4508V53.4419C15.3039 53.4508 9.34479 51.7169 4.2218 48.4478C5.10668 48.5537 5.996 48.6066 6.88753 48.6088C11.9307 48.6133 16.8297 46.9302 20.7972 43.8309C16.0047 43.7405 11.802 40.6324 10.3339 36.0949C12.0127 36.4169 13.7426 36.3508 15.3904 35.903C10.1654 34.853 6.40628 30.2868 6.40628 24.9838C6.40628 24.9353 6.40628 24.889 6.40628 24.8427C7.96313 25.7052 9.70628 26.1838 11.4893 26.2368C6.56817 22.9655 5.05124 16.4537 8.02301 11.3625C13.7093 18.3221 22.099 22.553 31.1053 23.0008C30.2027 19.1316 31.4357 15.0772 34.3454 12.3574C38.8563 8.13972 45.9508 8.3559 50.1912 12.8405C52.6994 12.3485 55.1035 11.4331 57.3035 10.136C56.4674 12.7147 54.7176 14.9052 52.3801 16.2971C54.6 16.0368 56.769 15.4456 58.8115 14.5434C57.3079 16.7846 55.4139 18.7368 53.2228 20.314Z" fill="#1D9BF0"/>
</g>
<defs>
<clipPath id="clip0_71_841">
<rect width="55" height="45" fill="white" transform="translate(4 9)"/>
</clipPath>
</defs>
</svg>
