<svg width="102" height="70" viewBox="0 0 102 70" fill="none" xmlns="http://www.w3.org/2000/svg">
<g clip-path="url(#clip0_104_177)">
<path d="M13.0105 55.9144L17.1814 69.9999L26.3563 57.7986L96.1053 59.6655L83.9858 4.96484L21.9019 43.6611L8.83374 41.8289L13.0105 55.9144Z" fill="#949799"/>
<path d="M43.5143 30.7779C43.5548 30.9339 43.5722 31.1247 43.5837 31.3501C43.5895 31.5813 43.578 31.8183 43.5433 32.0784C43.5085 32.3327 43.4565 32.5928 43.3871 32.8586C43.3176 33.1187 43.2193 33.3673 43.1036 33.5927C42.9821 33.8181 42.8433 34.0146 42.6755 34.1765C42.5078 34.3383 42.3168 34.4481 42.097 34.5059C42.045 34.5175 41.9755 34.529 41.8945 34.5464C41.8078 34.5579 41.721 34.5579 41.6342 34.5464C41.5417 34.5348 41.4607 34.5059 41.3855 34.4597C41.3103 34.4134 41.2582 34.3383 41.2351 34.2343C41.2177 34.1649 41.2177 34.084 41.2351 33.9799C41.2524 33.8817 41.2929 33.7603 41.3566 33.6158C41.4318 33.4771 41.507 33.3153 41.5879 33.1303C41.6689 32.9453 41.7326 32.7546 41.7904 32.5581C41.8425 32.3616 41.883 32.1766 41.9061 31.9917C41.9293 31.8125 41.9293 31.6564 41.8945 31.5235C41.8541 31.3559 41.7789 31.2345 41.6805 31.1536C41.5764 31.0727 41.4318 31.0553 41.2466 31.1016C41.0037 31.1651 40.7433 31.3096 40.4772 31.5466C40.2111 31.7836 39.945 32.0841 39.6789 32.4483C39.4128 32.8124 39.1525 33.2228 38.898 33.6794C38.6434 34.136 38.4062 34.6215 38.1864 35.1244C37.9666 35.633 37.7699 36.1474 37.6021 36.6791C37.4286 37.2109 37.2897 37.7253 37.1914 38.2224C37.0931 38.7194 37.0294 39.1934 37.0121 39.6384C36.9947 40.0835 37.0236 40.4707 37.1104 40.806C37.2145 41.2221 37.4112 41.5284 37.6947 41.7192C37.9782 41.9157 38.3773 41.9446 38.8922 41.8174C39.1294 41.7596 39.4649 41.5747 39.893 41.2741C40.321 40.9736 40.6681 40.6904 40.94 40.4245C41.2119 40.1586 41.478 39.8754 41.7441 39.5691C42.0103 39.2627 42.259 38.9737 42.502 38.6905C42.7392 38.4131 42.959 38.1588 43.1557 37.9276C43.3524 37.7022 43.5201 37.5346 43.659 37.4247C43.6821 37.3958 43.711 37.3727 43.7515 37.3669C43.8383 37.3438 43.9135 37.4016 43.9771 37.5346C44.0408 37.6675 44.0986 37.8236 44.1449 37.9969C44.168 38.0952 44.1854 38.2166 44.197 38.3611C44.2085 38.5056 44.168 38.6905 44.0755 38.9044C44.0292 38.9969 43.9482 39.1471 43.8209 39.3668C43.6937 39.5864 43.5317 39.8407 43.3292 40.1239C43.1267 40.4129 42.8953 40.7135 42.6235 41.0372C42.3516 41.3608 42.0507 41.6672 41.7152 41.9619C41.3797 42.2567 40.9343 42.5804 40.3789 42.9214C39.8235 43.2682 39.3145 43.4936 38.869 43.6092C38.3368 43.7421 37.8682 43.7884 37.4633 43.7537C37.0526 43.719 36.7055 43.6208 36.4046 43.4531C36.1096 43.2855 35.8666 43.0601 35.6757 42.7711C35.4848 42.4821 35.346 42.1527 35.2477 41.777C35.132 41.3088 35.0741 40.7886 35.0857 40.2222C35.0915 39.65 35.1551 39.0604 35.2708 38.442C35.3865 37.8293 35.5485 37.1993 35.7625 36.5578C35.9766 35.9162 36.2253 35.292 36.5203 34.6851C36.8154 34.0782 37.1393 33.4944 37.5038 32.9453C37.8682 32.3963 38.2558 31.8992 38.6723 31.4541C39.0889 31.0091 39.5227 30.6392 39.9797 30.3271C40.4367 30.0207 40.9053 29.8069 41.3913 29.6855C41.6284 29.6277 41.8656 29.593 42.097 29.593C42.3284 29.593 42.5367 29.6335 42.7276 29.7086C42.9185 29.7895 43.0862 29.9109 43.2309 30.0843C43.3755 30.2577 43.4796 30.4831 43.5548 30.7721L43.5143 30.7779Z" fill="black"/>
<path d="M43.1789 40.8868C43.2426 40.5632 43.3178 40.199 43.4045 39.8002C43.4913 39.4014 43.5839 39.0026 43.6764 38.6096C43.769 38.2165 43.8558 37.8408 43.9368 37.4825C44.0177 37.1241 44.0814 36.8236 44.1334 36.5751L45.5623 30.3328C45.5797 30.2519 45.6144 30.1652 45.6665 30.0785C45.7185 29.9918 45.7879 29.9109 45.8631 29.8357C45.9383 29.7606 46.0251 29.6912 46.1235 29.6334C46.216 29.5756 46.3144 29.5352 46.4185 29.5121C46.6672 29.4485 46.8524 29.4543 46.9738 29.5236C47.0953 29.593 47.1705 29.697 47.2052 29.8357C47.2342 29.9629 47.24 30.1016 47.2052 30.2577C47.1763 30.4137 47.1358 30.5582 47.0895 30.6969C46.9449 31.1882 46.8119 31.6795 46.6904 32.1708C46.5689 32.6621 46.4474 33.1592 46.3259 33.6562C46.2044 34.1533 46.083 34.6504 45.9615 35.1474C45.84 35.6387 45.7012 36.1358 45.5507 36.6213C45.6722 36.4306 45.7995 36.2283 45.9383 36.0144C46.0772 35.8063 46.2334 35.604 46.4127 35.4133C46.5863 35.2226 46.7945 35.055 47.0201 34.9047C47.2457 34.7544 47.5176 34.6388 47.8242 34.5637C48.0036 34.5174 48.1829 34.4943 48.3564 34.4827C48.53 34.477 48.692 34.4943 48.8366 34.5405C48.9812 34.5868 49.1085 34.6677 49.2126 34.7833C49.3225 34.8989 49.3977 35.055 49.444 35.2457C49.5076 35.5 49.5308 35.7485 49.5076 35.9797C49.4845 36.2109 49.4382 36.4363 49.363 36.6618C49.2936 36.8814 49.2068 37.0952 49.1085 37.3091C49.0101 37.5172 48.9176 37.731 48.8366 37.9391C48.7556 38.153 48.692 38.3668 48.6457 38.5807C48.5994 38.8003 48.5936 39.0257 48.6283 39.2569C48.6283 39.2685 48.6283 39.28 48.6283 39.2916C48.6283 39.3032 48.6283 39.3147 48.6283 39.3263C48.6573 39.4419 48.7151 39.4997 48.7961 39.5112C48.8829 39.5228 48.9812 39.5112 49.1027 39.4823C49.2589 39.4419 49.4151 39.3725 49.5771 39.2685C49.739 39.1644 49.8952 39.0431 50.0514 38.8986C50.2076 38.7541 50.358 38.598 50.5027 38.4246C50.6473 38.257 50.7919 38.0836 50.9192 37.9102C51.0464 37.7368 51.1679 37.575 51.2721 37.4189C51.3762 37.2629 51.4687 37.1299 51.5439 37.0143C51.5844 36.9565 51.6307 36.9103 51.6828 36.8698C51.7348 36.8352 51.7869 36.8063 51.839 36.7947C51.9431 36.7658 52.0357 36.7831 52.1282 36.8467C52.2208 36.9045 52.2786 37.0028 52.3133 37.1299C52.3423 37.2513 52.3365 37.3958 52.2902 37.5692C52.2439 37.7426 52.1456 37.9333 51.9836 38.1356C51.7406 38.4882 51.4861 38.8292 51.2258 39.1587C50.9655 39.4939 50.6936 39.7944 50.4101 40.0719C50.1266 40.3493 49.8374 40.5863 49.5366 40.777C49.2358 40.9735 48.9292 41.1123 48.6168 41.1874C48.2118 41.2857 47.8647 41.2799 47.5755 41.1527C47.2862 41.0313 47.0895 40.7712 46.9912 40.3666C46.9218 40.0777 46.8986 39.7887 46.9333 39.5054C46.9681 39.2222 47.0259 38.939 47.1127 38.6616C47.1995 38.3842 47.292 38.1125 47.4019 37.8466C47.5118 37.5808 47.5986 37.3264 47.6738 37.0779C47.7201 36.9623 47.749 36.8583 47.7664 36.7716C47.7837 36.6791 47.778 36.5866 47.7548 36.4884C47.7317 36.4017 47.6912 36.3381 47.6333 36.2976C47.5755 36.2572 47.4945 36.2456 47.4019 36.2687C47.0664 36.3554 46.7772 36.5115 46.5342 36.7485C46.2912 36.9854 46.083 37.2629 45.9094 37.575C45.7359 37.8929 45.5797 38.2281 45.4524 38.5807C45.3251 38.939 45.2037 39.2743 45.0995 39.5979C45.0532 39.7424 45.007 39.91 44.9607 40.0892C44.9202 40.2742 44.8739 40.4591 44.8276 40.6499C44.7814 40.8406 44.7351 41.0371 44.6772 41.2279C44.6252 41.4186 44.5615 41.592 44.4863 41.7538C44.4111 41.9099 44.3301 42.0428 44.2318 42.1526C44.1334 42.2624 44.0235 42.3318 43.8963 42.3607C43.6996 42.4127 43.5318 42.3896 43.393 42.3029C43.2541 42.2104 43.1674 42.0833 43.1211 41.9041C43.0864 41.7712 43.0748 41.6324 43.0864 41.4706C43.0979 41.3145 43.1269 41.118 43.1731 40.8811L43.1789 40.8868Z" fill="black"/>
<path d="M54.2859 32.9395C54.7603 32.8239 55.1421 32.847 55.4313 33.0146C55.7206 33.1823 55.9173 33.4713 56.0214 33.8759C56.0792 34.1128 56.0792 34.3787 56.0214 34.6735C55.9635 34.9682 55.8131 35.2861 55.5702 35.6329C55.3272 35.9797 54.9859 36.3612 54.5404 36.7716C54.095 37.1819 53.5223 37.627 52.8165 38.1067C52.886 38.2628 53.0074 38.3726 53.181 38.4304C53.3545 38.4882 53.5628 38.4824 53.8058 38.4246C54.0661 38.361 54.338 38.2512 54.6214 38.1009C54.8991 37.9507 55.171 37.7773 55.4371 37.5865C55.7032 37.3958 55.952 37.1935 56.2007 36.9854C56.4437 36.7773 56.6635 36.5808 56.8544 36.4017C57.0453 36.2225 57.2073 36.0664 57.3346 35.9393C57.4618 35.8121 57.5486 35.7254 57.5949 35.6907C57.6354 35.6445 57.6817 35.6156 57.7222 35.5983C57.7627 35.5809 57.8032 35.5694 57.8379 35.5636C57.9073 35.5462 57.9651 35.5462 58.023 35.5636C58.075 35.5867 58.1213 35.6098 58.1676 35.6445C58.2081 35.6792 58.2428 35.7196 58.2659 35.7659C58.2891 35.8121 58.3064 35.8526 58.3122 35.8872C58.3238 35.9393 58.3354 36.0028 58.3412 36.078C58.3469 36.1531 58.3238 36.2456 58.2717 36.3554C58.2486 36.3901 58.1734 36.4884 58.0461 36.656C57.9131 36.8236 57.7453 37.0201 57.5313 37.2571C57.3172 37.494 57.0627 37.7484 56.7734 38.02C56.4842 38.2974 56.166 38.5575 55.8305 38.8176C55.4892 39.072 55.1305 39.3031 54.7487 39.5112C54.3669 39.7193 53.9735 39.8696 53.5744 39.9736C53.2331 40.0603 52.9149 40.0719 52.6141 40.0025C52.319 39.9389 52.0471 39.8176 51.8042 39.6442C51.5612 39.4708 51.3587 39.2453 51.191 38.9795C51.0232 38.7136 50.8959 38.4188 50.8149 38.1009C50.7513 37.8582 50.734 37.575 50.7571 37.2571C50.7802 36.9392 50.8439 36.6097 50.9538 36.2687C51.0637 35.9277 51.2141 35.5809 51.405 35.2341C51.6017 34.8873 51.8331 34.5637 52.1108 34.2631C52.3885 33.9625 52.7066 33.7025 53.0711 33.4713C53.4355 33.2401 53.8405 33.0667 54.2917 32.9569L54.2859 32.9395ZM54.2743 34.1937C54.2454 34.1937 54.2165 34.1937 54.1934 34.2053C54.1702 34.2053 54.1471 34.2169 54.1182 34.2226C53.9041 34.2747 53.7074 34.3671 53.5454 34.5001C53.3777 34.633 53.2331 34.7891 53.1116 34.9682C52.9901 35.1474 52.8917 35.3382 52.8108 35.5462C52.7356 35.7543 52.6661 35.9566 52.6141 36.1531C52.562 36.3496 52.5215 36.5346 52.4984 36.7138C52.4752 36.8872 52.4579 37.0374 52.4463 37.153C52.6199 37.0028 52.7992 36.8351 52.9785 36.6502C53.1579 36.4652 53.3314 36.2918 53.4876 36.1242C53.6438 35.9566 53.7826 35.8063 53.8983 35.6792C54.014 35.5462 54.095 35.4595 54.1413 35.4075C54.3553 35.1821 54.5 34.9914 54.5578 34.8295C54.6214 34.6677 54.6388 34.5348 54.6099 34.4307C54.5867 34.344 54.5462 34.2862 54.4768 34.2458C54.4074 34.2053 54.3438 34.1937 54.2686 34.1995L54.2743 34.1937Z" fill="black"/>
<path d="M61.4824 31.98C61.5287 32.1534 61.5576 32.3557 61.5692 32.5811C61.5808 32.8065 61.5692 33.0204 61.5229 33.2343C61.4767 33.4481 61.4014 33.6331 61.2915 33.7891C61.1816 33.951 61.0196 34.055 60.8114 34.107C60.6957 34.1359 60.6205 34.1359 60.58 34.107C60.5395 34.0839 60.5106 34.0261 60.4874 33.9394C60.4759 33.8874 60.4585 33.8122 60.4354 33.714C60.4122 33.6157 60.3891 33.5175 60.3659 33.425C60.3428 33.321 60.3023 33.24 60.256 33.1765C60.2098 33.1129 60.1288 33.0955 60.0188 33.1244C59.8858 33.1591 59.7527 33.2458 59.6139 33.3845C59.4751 33.5232 59.3478 33.6966 59.2263 33.8932C59.1048 34.0955 58.9891 34.3151 58.8908 34.5521C58.7867 34.7948 58.6999 35.0318 58.6305 35.2688C58.561 35.5057 58.5148 35.7312 58.4916 35.945C58.4685 36.1531 58.4743 36.3265 58.509 36.4652C58.561 36.6617 58.6652 36.8004 58.8329 36.8813C59.0007 36.9623 59.2032 36.968 59.4461 36.9102C59.7007 36.8467 59.9668 36.7369 60.2329 36.575C60.499 36.419 60.7651 36.234 61.0196 36.0317C61.2742 35.8294 61.5172 35.6156 61.7428 35.3959C61.9742 35.1763 62.1766 34.9682 62.3618 34.7717C62.5469 34.5752 62.6973 34.4133 62.8245 34.2746C62.946 34.1359 63.027 34.055 63.0675 34.0203C63.1485 33.951 63.2295 33.9105 63.3047 33.8874C63.3741 33.87 63.4377 33.87 63.4898 33.8874C63.5477 33.9047 63.5939 33.9336 63.6344 33.9683C63.6749 34.003 63.7039 34.0434 63.727 34.0897C63.7501 34.1359 63.7675 34.1764 63.7733 34.211C63.7848 34.2631 63.7964 34.3266 63.8022 34.4018C63.808 34.4769 63.7848 34.5694 63.7328 34.6792C63.7096 34.7197 63.6402 34.8295 63.5187 35.0087C63.3973 35.1878 63.2353 35.4017 63.0328 35.6502C62.8303 35.8988 62.5989 36.1704 62.327 36.4652C62.0609 36.76 61.7659 37.0374 61.4419 37.3091C61.118 37.5749 60.7767 37.8177 60.4122 38.0315C60.0478 38.2454 59.6775 38.4015 59.2957 38.4939C59.0065 38.5691 58.7346 38.5864 58.4858 38.5517C58.2371 38.517 58.0173 38.4419 57.8264 38.3205C57.6355 38.2049 57.4735 38.0489 57.3404 37.8581C57.2074 37.6674 57.1148 37.4536 57.0512 37.2224C56.9875 36.968 56.976 36.6559 57.0107 36.2918C57.0454 35.9277 57.1264 35.5462 57.2479 35.1474C57.3693 34.7486 57.5313 34.344 57.7338 33.9394C57.9363 33.5348 58.1677 33.1591 58.4338 32.8123C58.6999 32.4655 58.9949 32.1708 59.3189 31.9222C59.6428 31.6737 59.9841 31.5003 60.3544 31.4078C60.4816 31.3789 60.6031 31.3616 60.7188 31.3616C60.8345 31.3616 60.9444 31.3847 61.0428 31.4194C61.1411 31.4598 61.2279 31.5234 61.2973 31.6159C61.3725 31.7084 61.4246 31.824 61.4651 31.9627L61.4824 31.98Z" fill="black"/>
<path d="M64.7452 32.2806C64.9071 32.0031 65.0807 31.7257 65.2658 31.4483C65.4509 31.1708 65.6592 30.9107 65.879 30.668C66.0988 30.431 66.3418 30.2172 66.6079 30.038C66.8682 29.8588 67.1633 29.7259 67.4814 29.6507C67.6723 29.6045 67.869 29.5756 68.0773 29.5698C68.2855 29.564 68.488 29.5872 68.6731 29.645C68.8583 29.7028 69.026 29.7952 69.1649 29.9224C69.3037 30.0495 69.402 30.2229 69.4599 30.4484C69.5524 30.8125 69.5524 31.1651 69.4599 31.5003C69.3673 31.8355 69.2169 32.1592 69.0029 32.454C68.7946 32.7545 68.5459 33.032 68.2624 33.2978C67.9789 33.5579 67.6955 33.7891 67.4178 33.9972C67.3484 34.0492 67.2848 34.1128 67.2269 34.1879C67.1748 34.2573 67.1286 34.3324 67.0939 34.4018C67.0591 34.4711 67.036 34.5405 67.0244 34.6099C67.0129 34.6792 67.0071 34.7312 67.0244 34.7717C67.0418 34.8411 67.0765 34.8931 67.1343 34.9335C67.1864 34.974 67.2732 34.9798 67.3773 34.9509C67.5856 34.8989 67.817 34.7948 68.0657 34.6445C68.3145 34.4943 68.5921 34.2862 68.9045 34.0203C69.2169 33.7602 69.5698 33.4365 69.9632 33.0551C70.3566 32.6736 70.802 32.2228 71.3111 31.7084C71.3921 31.6274 71.4788 31.5754 71.5656 31.5523C71.6755 31.5234 71.7681 31.5407 71.8491 31.6101C71.9301 31.6737 71.9879 31.7719 72.0226 31.9049C72.0631 32.0667 72.0515 32.2575 71.9821 32.4886C71.9127 32.7198 71.7681 32.9626 71.5425 33.2111C71.2185 33.5406 70.8888 33.8816 70.5532 34.2284C70.2177 34.581 69.8648 34.9104 69.4946 35.2225C69.1244 35.5346 68.7368 35.8121 68.326 36.0606C67.9153 36.3034 67.4757 36.4883 67.0071 36.6039C66.1972 36.8062 65.7055 36.5577 65.5319 35.8583C65.4394 35.4884 65.4394 35.1416 65.5203 34.8237C65.6071 34.5 65.7344 34.2111 65.9079 33.9394C66.0815 33.6735 66.2724 33.4365 66.4749 33.2227C66.6831 33.0088 66.8567 32.8239 67.0071 32.6563C67.1228 32.5407 67.2327 32.4251 67.3252 32.3037C67.4236 32.1823 67.5046 32.0609 67.574 31.9396C67.6434 31.8182 67.6955 31.7026 67.7244 31.587C67.7533 31.4714 67.7533 31.3674 67.7244 31.2633C67.6839 31.0957 67.5856 31.0379 67.4294 31.0726C66.8624 31.2171 66.203 31.9627 65.4509 33.3152C65.2774 33.6273 65.127 33.9221 64.9939 34.2053C64.8609 34.4885 64.7394 34.7659 64.6237 35.0376C64.5138 35.3092 64.4096 35.5693 64.3055 35.8179C64.2072 36.0664 64.103 36.3091 64.0047 36.5403C63.6865 37.153 63.351 37.4998 63.0039 37.5865C62.8361 37.627 62.7089 37.627 62.6221 37.5865C62.5353 37.546 62.4659 37.442 62.4254 37.2744C62.4254 37.2513 62.4138 37.2281 62.408 37.205C62.408 37.1819 62.3965 37.1588 62.3965 37.1241C62.3791 37.0085 62.3849 36.8236 62.4138 36.5692C62.4428 36.3149 62.4833 36.0201 62.5353 35.6965C62.5874 35.367 62.651 35.0202 62.7262 34.6445C62.8014 34.2688 62.8708 33.9047 62.946 33.5406C63.0213 33.1822 63.0907 32.8412 63.1543 32.5291C63.2179 32.2112 63.2758 31.9511 63.3221 31.7373L64.641 25.5586C64.6584 25.4777 64.6931 25.391 64.7452 25.3043C64.7972 25.2176 64.8609 25.1367 64.9361 25.0615C65.0113 24.9864 65.0923 24.917 65.1848 24.865C65.2774 24.8072 65.3757 24.7667 65.4741 24.7436C65.7286 24.68 65.9195 24.6858 66.0468 24.7552C66.1683 24.8245 66.2492 24.9286 66.284 25.0673C66.3129 25.1945 66.3187 25.3332 66.2897 25.4834C66.2666 25.6337 66.2261 25.7782 66.174 25.9227C66.041 26.4082 65.9195 26.9226 65.8038 27.4602C65.6881 27.9977 65.5782 28.5468 65.4683 29.1016C65.3584 29.6565 65.2427 30.1998 65.127 30.7431C65.0113 31.2864 64.8782 31.8008 64.7452 32.2864V32.2806Z" fill="black"/>
<path d="M75.9969 32.8527C76.02 33.0377 76.0085 33.2169 75.9622 33.396C75.9159 33.5752 75.8465 33.7428 75.7539 33.8989C75.6614 34.055 75.5399 34.1879 75.401 34.2977C75.2564 34.4075 75.106 34.4827 74.9325 34.5289C74.6779 34.5925 74.4523 34.5578 74.2556 34.4306C74.0589 34.3035 73.9317 34.1128 73.868 33.87C73.8218 33.685 73.816 33.4943 73.8507 33.3036C73.8854 33.1128 73.9548 32.9337 74.0589 32.766C74.1573 32.5984 74.2845 32.4539 74.435 32.3326C74.5854 32.2112 74.7531 32.1245 74.9325 32.0782C75.187 32.0147 75.4126 32.0436 75.5977 32.1649C75.7828 32.2863 75.9101 32.4713 75.9738 32.714C75.9738 32.7371 75.9853 32.7603 75.9911 32.7776C75.9911 32.7949 75.9969 32.8238 76.0027 32.8527H75.9969ZM77.7555 22.79C77.5935 23.4662 77.4431 24.0731 77.3043 24.6106C77.1655 25.1482 77.0324 25.6741 76.8993 26.1886C76.7663 26.6972 76.6332 27.2231 76.4944 27.7607C76.3556 28.2982 76.2051 28.9051 76.0432 29.5813C75.9969 29.7663 75.9043 29.9223 75.7713 30.0437C75.6324 30.1651 75.4936 30.246 75.3606 30.2807C75.2449 30.3096 75.1465 30.3096 75.0655 30.2807C74.9845 30.2518 74.9267 30.1824 74.9035 30.0842C74.8862 30.0148 74.8862 29.9455 74.9035 29.8761C74.973 29.4368 75.0424 29.0265 75.106 28.6508C75.1696 28.2751 75.2275 27.9167 75.2853 27.5699C75.3432 27.2231 75.3953 26.8879 75.4473 26.5585C75.4994 26.229 75.5514 25.8938 75.6093 25.5528C75.6671 25.2118 75.725 24.8476 75.7886 24.4719C75.8523 24.0905 75.9159 23.6859 75.9911 23.2408C76.0085 23.1252 76.0547 23.0212 76.1126 22.9229C76.1762 22.8247 76.2514 22.7322 76.3498 22.6513C76.4423 22.5704 76.5465 22.501 76.6622 22.449C76.7721 22.3912 76.8936 22.3507 77.0093 22.3218C77.1944 22.2756 77.3564 22.2698 77.501 22.3103C77.6456 22.3449 77.7382 22.4374 77.7729 22.5877C77.7902 22.6513 77.7902 22.7206 77.7729 22.8073L77.7555 22.79Z" fill="black"/>
<path d="M8.8221 64.3473C8.77003 64.3473 8.71797 64.3415 8.67169 64.3241C8.48657 64.2721 8.34195 64.1392 8.27831 63.96C4.96933 54.6486 2.18678 45.0367 0.0116395 35.3959C-0.0288551 35.2052 0.0232094 35.0086 0.162048 34.8641C0.300886 34.7254 0.497574 34.6618 0.688477 34.7023C3.6735 35.2861 5.73873 35.8063 7.74031 36.3091C10.0716 36.8929 12.2699 37.4477 15.55 37.9795L16.9557 37.2165C29.6421 28.4658 40.0781 21.293 50.6356 14.0393C57.1552 9.55987 63.7269 5.04579 70.9003 0.104006C71.1664 -0.0751701 71.525 -0.0115915 71.7044 0.254282C71.8837 0.520156 71.8201 0.878508 71.554 1.05768C64.3748 5.99947 57.8089 10.5136 51.2835 14.993C40.7202 22.2525 30.2784 29.4311 17.5805 38.1876C17.5631 38.1991 17.5458 38.2107 17.5284 38.2222L15.9202 39.095C15.8103 39.1586 15.6772 39.1817 15.55 39.1586C12.1137 38.6095 9.84603 38.0373 7.44528 37.4362C5.66352 36.9854 3.82391 36.5287 1.32482 36.0143C3.39583 45.0425 5.99905 54.0418 9.07085 62.7809C10.4824 61.5151 11.5121 60.3013 12.5939 59.0298C13.8087 57.6021 15.0583 56.1225 16.8863 54.5908C17.7425 53.8684 18.7201 53.0534 19.906 52.6372C21.1209 52.2153 22.4225 52.2673 23.5737 52.3136C38.3137 52.9031 50.0976 52.8916 62.5699 52.88C70.7325 52.8742 79.1843 52.8684 88.7873 53.0303C89.1054 53.0303 89.36 53.2961 89.3542 53.6198C89.3542 53.9377 89.0997 54.1978 88.7641 54.1862C79.1669 54.0186 70.7267 54.0244 62.5699 54.036C50.0861 54.0417 38.2848 54.0533 23.5216 53.4638C22.4283 53.4175 21.2944 53.3771 20.2821 53.7239C19.2986 54.0649 18.4482 54.7816 17.6268 55.4694C15.8739 56.9432 14.7054 58.3131 13.4732 59.7696C12.2584 61.1972 11.0088 62.6769 9.18076 64.2085C9.07664 64.2952 8.94358 64.3415 8.81053 64.3415L8.8221 64.3473Z" fill="black"/>
<path d="M86.1493 26.2694C85.9237 26.2694 85.7097 26.1365 85.6171 25.9168C85.4956 25.6221 85.6287 25.2811 85.9237 25.1597L101.196 18.7093C101.491 18.588 101.832 18.7209 101.954 19.0157C102.075 19.3105 101.942 19.6515 101.647 19.7728L86.3749 26.2232C86.2997 26.2521 86.2245 26.2694 86.1493 26.2694Z" fill="black"/>
<path d="M82.0304 19.6399C81.9147 19.6399 81.7932 19.6053 81.6891 19.5301C81.4288 19.3394 81.3767 18.981 81.5618 18.7209L90.5632 6.39248C90.7483 6.13239 91.1127 6.08037 91.3731 6.26532C91.6334 6.45606 91.6912 6.81441 91.5003 7.0745L82.499 19.403C82.3833 19.559 82.2097 19.6399 82.0304 19.6399Z" fill="black"/>
<path d="M101.207 39.1702C101.144 39.1702 101.08 39.1587 101.017 39.1356L86.8608 34.1707C86.56 34.0666 86.398 33.7372 86.5079 33.4366C86.612 33.1361 86.9418 32.9742 87.2426 33.084L101.398 38.049C101.699 38.153 101.861 38.4824 101.751 38.783C101.67 39.02 101.445 39.1702 101.207 39.1702Z" fill="black"/>
</g>
<defs>
<clipPath id="clip0_104_177">
<rect width="102" height="70" fill="white"/>
</clipPath>
</defs>
</svg>
