<svg width="64" height="64" viewBox="0 0 64 64" fill="none" xmlns="http://www.w3.org/2000/svg">
<g clip-path="url(#clip0_71_843)">
<path d="M45.179 8H18.821C12.8447 8 8 12.8447 8 18.821V45.179C8 51.1553 12.8447 56 18.821 56H45.179C51.1553 56 56 51.1553 56 45.179V18.821C56 12.8447 51.1553 8 45.179 8Z" fill="#06C755"/>
<path d="M47.9989 29.738C47.9989 22.577 40.8199 16.751 31.9954 16.751C23.1709 16.751 15.9919 22.577 15.9919 29.738C15.9919 36.158 21.6919 41.5355 29.3749 42.551C29.8969 42.6635 30.6064 42.8945 30.7849 43.34C30.9469 43.745 30.8914 44.3795 30.8374 44.7875C30.8374 44.7875 30.6499 45.917 30.6094 46.157C30.5389 46.562 30.2869 47.7395 31.9954 47.021C33.7039 46.3025 41.2114 41.594 44.5684 37.7285C46.8874 35.186 47.9989 32.6 47.9989 29.738Z" fill="white"/>
<path d="M42.674 33.8735H38.174C38.0945 33.8735 38.0182 33.8419 37.9619 33.7856C37.9056 33.7294 37.874 33.6531 37.874 33.5735V26.591C37.874 26.5115 37.9056 26.4351 37.9619 26.3789C38.0182 26.3226 38.0945 26.291 38.174 26.291H42.674C42.7536 26.291 42.8299 26.3226 42.8862 26.3789C42.9424 26.4351 42.974 26.5115 42.974 26.591V27.7265C42.974 27.8061 42.9424 27.8824 42.8862 27.9386C42.8299 27.9949 42.7536 28.0265 42.674 28.0265H39.6185V29.204H42.674C42.7536 29.204 42.8299 29.2356 42.8862 29.2919C42.9424 29.3481 42.974 29.4245 42.974 29.504V30.65C42.974 30.7296 42.9424 30.8059 42.8862 30.8621C42.8299 30.9184 42.7536 30.95 42.674 30.95H39.6185V32.129H42.674C42.7536 32.129 42.8299 32.1606 42.8862 32.2169C42.9424 32.2731 42.974 32.3495 42.974 32.429V33.563C42.9754 33.6033 42.9687 33.6434 42.9543 33.681C42.9398 33.7187 42.918 33.753 42.89 33.782C42.862 33.8109 42.8284 33.834 42.7913 33.8497C42.7542 33.8654 42.7143 33.8735 42.674 33.8735Z" fill="#06C755"/>
<path d="M26.0435 33.8736C26.1231 33.8736 26.1994 33.8419 26.2557 33.7857C26.3119 33.7294 26.3435 33.6531 26.3435 33.5736V32.4395C26.3435 32.36 26.3119 32.2837 26.2557 32.2274C26.1994 32.1712 26.1231 32.1395 26.0435 32.1395H22.988V26.5896C22.988 26.51 22.9564 26.4337 22.9002 26.3774C22.8439 26.3212 22.7676 26.2896 22.688 26.2896H21.548C21.4685 26.2896 21.3922 26.3212 21.3359 26.3774C21.2797 26.4337 21.248 26.51 21.248 26.5896V33.5691C21.248 33.6486 21.2797 33.7249 21.3359 33.7812C21.3922 33.8374 21.4685 33.8691 21.548 33.8691H26.048L26.0435 33.8736Z" fill="#06C755"/>
<path d="M28.7496 26.2776H27.6156C27.4466 26.2776 27.3096 26.4146 27.3096 26.5836V33.5676C27.3096 33.7366 27.4466 33.8736 27.6156 33.8736H28.7496C28.9186 33.8736 29.0556 33.7366 29.0556 33.5676V26.5836C29.0556 26.4146 28.9186 26.2776 28.7496 26.2776Z" fill="#06C755"/>
<path d="M36.476 26.2776H35.342C35.2625 26.2776 35.1862 26.3092 35.1299 26.3655C35.0736 26.4217 35.042 26.498 35.042 26.5776V30.7266L31.847 26.4111C31.8397 26.3997 31.8312 26.3891 31.8215 26.3796L31.8035 26.3616L31.787 26.3481H31.778L31.7615 26.3361H31.7525L31.736 26.3271H31.7255H31.709H31.6985H31.6805H31.6685H31.6505H31.6385H31.622H30.4655C30.386 26.3271 30.3097 26.3587 30.2534 26.415C30.1971 26.4712 30.1655 26.5475 30.1655 26.6271V33.6111C30.1655 33.6907 30.1971 33.767 30.2534 33.8232C30.3097 33.8795 30.386 33.9111 30.4655 33.9111H31.601C31.6806 33.9111 31.7569 33.8795 31.8132 33.8232C31.8694 33.767 31.901 33.6907 31.901 33.6111V29.4216L35.1005 33.7416C35.1215 33.7722 35.1479 33.7986 35.1785 33.8196L35.1965 33.8316H35.2055L35.2205 33.8391H35.2355H35.246H35.267C35.2935 33.8456 35.3207 33.8491 35.348 33.8496H36.476C36.5556 33.8496 36.6319 33.818 36.6882 33.7617C36.7444 33.7055 36.776 33.6292 36.776 33.5496V26.5836C36.7768 26.5437 36.7697 26.504 36.7549 26.4669C36.7402 26.4298 36.7182 26.3961 36.6903 26.3676C36.6624 26.3391 36.629 26.3164 36.5922 26.301C36.5554 26.2855 36.5159 26.2776 36.476 26.2776Z" fill="#06C755"/>
</g>
<defs>
<clipPath id="clip0_71_843">
<rect width="48" height="48" fill="white" transform="translate(8 8)"/>
</clipPath>
</defs>
</svg>
