<svg width="64" height="64" viewBox="0 0 64 64" fill="none" xmlns="http://www.w3.org/2000/svg">
<g clip-path="url(#clip0_71_842)">
<path d="M56 32C56 18.7452 45.2548 8 32 8C18.7452 8 8 18.7452 8 32C8 43.9789 16.7764 53.908 28.25 55.7084V38.9375H22.1562V32H28.25V26.7125C28.25 20.6975 31.8331 17.375 37.3152 17.375C39.9402 17.375 42.6875 17.8438 42.6875 17.8438V23.75H39.6613C36.68 23.75 35.75 25.6002 35.75 27.5V32H42.4062L41.3422 38.9375H35.75V55.7084C47.2236 53.908 56 43.9789 56 32Z" fill="#1877F2"/>
<path d="M41.3422 38.9375L42.4062 32H35.75V27.5C35.75 25.602 36.68 23.75 39.6613 23.75H42.6875V17.8438C42.6875 17.8438 39.9411 17.375 37.3152 17.375C31.8331 17.375 28.25 20.6975 28.25 26.7125V32H22.1562V38.9375H28.25V55.7084C30.7349 56.0972 33.2651 56.0972 35.75 55.7084V38.9375H41.3422Z" fill="white"/>
</g>
<defs>
<clipPath id="clip0_71_842">
<rect width="48" height="48" fill="white" transform="translate(8 8)"/>
</clipPath>
</defs>
</svg>
