<svg width="58" height="44" viewBox="0 0 58 44" fill="none" xmlns="http://www.w3.org/2000/svg">
<path d="M58.0001 5.87046C58.0001 2.62907 55.371 0 52.1296 0H40.656C37.4146 0 34.7855 2.62907 34.7855 5.87046V17.3441C34.7855 20.5855 37.4146 23.2146 40.656 23.2146C44.6944 23.2146 47.5324 27.2043 46.2009 31.0143C44.2084 36.7098 39.1106 38.4544 36.4232 38.989C35.427 39.1883 34.7078 40.0581 34.7078 41.0738C34.7078 42.3227 35.7817 43.3141 37.0258 43.1926C53.8888 41.5938 57.3635 26.8836 57.9126 23.7831C57.9709 23.4478 58.0001 23.1077 58.0001 22.7675V5.87046Z" fill="#949799"/>
<path d="M17.4219 0H5.94822C2.70683 0 0.0777563 2.62907 0.0777563 5.87046V17.3441C0.0777563 20.5855 2.70683 23.2146 5.94822 23.2146C9.98659 23.2146 12.8246 27.2043 11.4931 31.0143C9.50062 36.7098 4.40285 38.4544 1.71546 38.989C0.719228 39.1883 0 40.0581 0 41.0738C0 42.3227 1.07399 43.3141 2.31806 43.1926C19.1811 41.5938 22.6557 26.8836 23.2049 23.7831C23.2632 23.4478 23.2923 23.1077 23.2923 22.7675V5.87046C23.2923 2.62907 20.6633 0 17.4219 0Z" fill="#949799"/>
</svg>
