<svg width="58" height="43" viewBox="0 0 58 43" fill="none" xmlns="http://www.w3.org/2000/svg">
<path d="M21.4736 4.19764C22.465 3.99935 23.1808 3.13364 23.1808 2.12283C23.1808 0.875044 22.112 -0.106743 20.8739 0.00933079C4.09158 1.6005 0.633567 16.2403 0.087055 19.3259C0.0290183 19.6596 0 19.9981 0 20.3367V37.1528C0 40.3787 2.61649 42.9952 5.84236 42.9952H17.2611C20.4869 42.9952 23.1034 40.3787 23.1034 37.1528V25.7341C23.1034 22.5082 20.4869 19.8917 17.2611 19.8917C13.242 19.8917 10.4176 15.921 11.7428 12.1293C13.7257 6.46107 18.799 4.72481 21.4736 4.19281V4.19764Z" fill="#949799"/>
<path d="M56.0151 4.19767C57.0065 3.99938 57.7223 3.13366 57.7223 2.12286C57.7223 0.879907 56.6535 -0.106717 55.4154 0.0141932C38.6331 1.60536 35.1751 16.2451 34.6286 19.3307C34.5705 19.6644 34.5415 20.003 34.5415 20.3415V37.1577C34.5415 40.3835 37.158 43 40.3839 43H51.8026C55.0284 43 57.6449 40.3835 57.6449 37.1577V25.7389C57.6449 22.5131 55.0284 19.8966 51.8026 19.8966C47.7835 19.8966 44.9591 15.9259 46.2843 12.1342C48.2672 6.46594 53.3405 4.72967 56.0151 4.19767Z" fill="#949799"/>
</svg>
