<svg width="64" height="64" viewBox="0 0 64 64" fill="none" xmlns="http://www.w3.org/2000/svg">
<path d="M54.741 28.14C55.3368 32.8965 54.4315 37.7203 52.1519 41.9373C49.8723 46.1542 46.3321 49.5535 42.0261 51.6602C37.7202 53.7669 32.8637 54.4757 28.1352 53.6875C23.4068 52.8993 19.0428 50.6535 15.653 47.264" stroke="black" stroke-width="2" stroke-miterlimit="10" stroke-linecap="round" stroke-linejoin="round"/>
<path d="M9.06501 33.62C8.69704 30.3997 9.01363 27.138 9.99404 24.0486C10.9745 20.9592 12.5966 18.1118 14.7541 15.6929C16.9116 13.2741 19.5558 11.3384 22.5136 10.0126C25.4713 8.68689 28.6758 8.00104 31.917 8.00002C34.9374 7.99601 37.9288 8.58866 40.7195 9.74393C43.5102 10.8992 46.0452 12.5943 48.179 14.732" stroke="black" stroke-width="2" stroke-miterlimit="10" stroke-linecap="round" stroke-linejoin="round"/>
<path d="M2 24L9.065 33.619L18 26" stroke="black" stroke-width="2" stroke-miterlimit="10" stroke-linecap="round" stroke-linejoin="round"/>
<path d="M62 38L54.741 28.14L46 36" stroke="black" stroke-width="2" stroke-miterlimit="10" stroke-linecap="round" stroke-linejoin="round"/>
</svg>
