<svg width="64" height="64" viewBox="0 0 64 64" fill="none" xmlns="http://www.w3.org/2000/svg">
<path d="M62 19.3L44.8 2L36.8 12.3L51.7 27.3L62 19.3Z" stroke="black" stroke-width="2" stroke-miterlimit="10" stroke-linecap="round" stroke-linejoin="round"/>
<path d="M31.1296 37.7415C32.4964 36.3746 32.4964 34.1586 31.1296 32.7917C29.7627 31.4249 27.5467 31.4249 26.1798 32.7917C24.813 34.1586 24.813 36.3746 26.1798 37.7415C27.5467 39.1083 29.7627 39.1083 31.1296 37.7415Z" stroke="black" stroke-width="2" stroke-miterlimit="10" stroke-linecap="round" stroke-linejoin="round"/>
<path d="M38.3 13.8C33.1 19 28.3 21.8 14.1 21.8C11.6 32.2 5.7 52.3 2 62M2 62C11.7 58.3 31.7 52.4 42.2 49.9C42.2 35.7 44.9 30.9 50.2 25.7M2 62L26.2 37.8" stroke="black" stroke-width="2" stroke-miterlimit="10" stroke-linecap="round" stroke-linejoin="round"/>
</svg>
