<svg width="64" height="64" viewBox="0 0 64 64" fill="none" xmlns="http://www.w3.org/2000/svg">
<path d="M30.5 42H22C19.2333 42 16.875 41.025 14.925 39.075C12.975 37.125 12 34.7667 12 32C12 29.2333 12.975 26.875 14.925 24.925C16.875 22.975 19.2333 22 22 22H30.5V25H22C20.0556 25 18.4028 25.6794 17.0416 27.0383C15.6805 28.3971 15 30.0471 15 31.9883C15 33.9294 15.6805 35.5833 17.0416 36.95C18.4028 38.3167 20.0556 39 22 39H30.5V42ZM24.25 33.5V30.5H39.75V33.5H24.25ZM33.5 42V39H42C43.9444 39 45.5972 38.3206 46.9584 36.9617C48.3195 35.6029 49 33.9529 49 32.0117C49 30.0706 48.3195 28.4167 46.9584 27.05C45.5972 25.6833 43.9444 25 42 25H33.5V22H42C44.7667 22 47.125 22.975 49.075 24.925C51.025 26.875 52 29.2333 52 32C52 34.7667 51.025 37.125 49.075 39.075C47.125 41.025 44.7667 42 42 42H33.5Z" fill="black"/>
</svg>
