<svg width="190" height="29" viewBox="0 0 190 29" fill="none" xmlns="http://www.w3.org/2000/svg">
<path d="M1.204 11V0.569999H3.71V4.7H3.752L6.706 0.569999H9.45L6.3 4.756L10.038 11H7.308L4.844 6.73L3.71 8.27V11H1.204Z" fill="black"/>
<path d="M9.54034 11L12.7743 0.569999H15.7703L19.0043 11H16.3723L15.0703 5.792C14.7903 4.756 14.5243 3.51 14.2443 2.446H14.1883C13.9363 3.538 13.6563 4.756 13.3903 5.792L12.0883 11H9.54034ZM11.7383 8.606V6.674H16.7783V8.606H11.7383Z" fill="black"/>
<path d="M20.0985 11V0.569999H22.6465L25.2365 5.568L26.2585 7.878H26.3285C26.2025 6.772 25.9925 5.274 25.9925 4.028V0.569999H28.3725V11H25.8245L23.2485 5.974L22.2265 3.692H22.1565C22.2685 4.854 22.4785 6.282 22.4785 7.542V11H20.0985Z" fill="black"/>
<path d="M32.8059 11V2.656H29.9919V0.569999H38.1399V2.656H35.3119V11H32.8059Z" fill="black"/>
<path d="M37.6907 11L40.9247 0.569999H43.9207L47.1547 11H44.5227L43.2207 5.792C42.9407 4.756 42.6747 3.51 42.3947 2.446H42.3387C42.0867 3.538 41.8067 4.756 41.5407 5.792L40.2387 11H37.6907ZM39.8887 8.606V6.674H44.9287V8.606H39.8887Z" fill="black"/>
<path d="M48.2489 11V0.569999H50.7969L53.3869 5.568L54.4089 7.878H54.4789C54.3529 6.772 54.1429 5.274 54.1429 4.028V0.569999H56.5229V11H53.9749L51.3989 5.974L50.3769 3.692H50.3069C50.4189 4.854 50.6289 6.282 50.6289 7.542V11H48.2489Z" fill="black"/>
<path d="M59.7103 7.22L59.3463 2.488L59.2623 0.261999H61.7683L61.6843 2.488L61.3203 7.22H59.7103ZM60.5083 11.196C59.6543 11.196 59.0383 10.51 59.0383 9.642C59.0383 8.774 59.6543 8.102 60.5083 8.102C61.3763 8.102 61.9923 8.774 61.9923 9.642C61.9923 10.51 61.3763 11.196 60.5083 11.196Z" fill="black"/>
<path d="M5.614 28.196C2.968 28.196 0.728001 26.376 0.728001 22.848C0.728001 19.376 3.052 17.388 5.698 17.388C7.056 17.388 8.148 18.018 8.862 18.746L7.56 20.342C7.028 19.866 6.482 19.53 5.74 19.53C4.396 19.53 3.29 20.734 3.29 22.764C3.29 24.836 4.242 26.04 5.712 26.04C6.552 26.04 7.21 25.62 7.7 25.088L9.016 26.656C8.134 27.678 6.972 28.196 5.614 28.196Z" fill="black"/>
<path d="M10.5419 28V17.57H13.2439L14.8959 22.078C15.1059 22.68 15.2739 23.338 15.4699 23.968H15.5399C15.7499 23.338 15.9179 22.68 16.1139 22.078L17.7099 17.57H20.4259V28H18.1439V24.43C18.1439 23.394 18.3399 21.84 18.4799 20.818H18.4099L17.5419 23.31L16.1419 27.118H14.7699L13.3559 23.31L12.5159 20.818H12.4599C12.5859 21.84 12.7819 23.394 12.7819 24.43V28H10.5419Z" fill="black"/>
<path d="M26.0532 28.196C24.6952 28.196 23.2392 27.692 22.1612 26.698L23.5892 24.976C24.3172 25.606 25.2832 26.04 26.1092 26.04C27.0332 26.04 27.4672 25.69 27.4672 25.13C27.4672 24.528 26.8932 24.332 25.9972 23.954L24.6672 23.394C23.5752 22.96 22.5532 22.05 22.5532 20.538C22.5532 18.788 24.1212 17.388 26.3332 17.388C27.5372 17.388 28.8112 17.85 29.7212 18.76L28.4752 20.328C27.7892 19.81 27.1452 19.53 26.3332 19.53C25.5632 19.53 25.1012 19.838 25.1012 20.384C25.1012 20.972 25.7452 21.196 26.6692 21.56L27.9712 22.078C29.2592 22.596 30.0292 23.464 30.0292 24.934C30.0292 26.67 28.5732 28.196 26.0532 28.196Z" fill="black"/>
<path d="M38.1939 28.196C36.8359 28.196 35.3799 27.692 34.3019 26.698L35.7299 24.976C36.4579 25.606 37.4239 26.04 38.2499 26.04C39.1739 26.04 39.6079 25.69 39.6079 25.13C39.6079 24.528 39.0339 24.332 38.1379 23.954L36.8079 23.394C35.7159 22.96 34.6939 22.05 34.6939 20.538C34.6939 18.788 36.2619 17.388 38.4739 17.388C39.6779 17.388 40.9519 17.85 41.8619 18.76L40.6159 20.328C39.9299 19.81 39.2859 19.53 38.4739 19.53C37.7039 19.53 37.2419 19.838 37.2419 20.384C37.2419 20.972 37.8859 21.196 38.8099 21.56L40.1119 22.078C41.3999 22.596 42.1699 23.464 42.1699 24.934C42.1699 26.67 40.7139 28.196 38.1939 28.196Z" fill="black"/>
<path d="M45.4934 28V19.656H42.6794V17.57H50.8274V19.656H47.9994V28H45.4934Z" fill="black"/>
<path d="M50.3782 28L53.6122 17.57H56.6082L59.8422 28H57.2102L55.9082 22.792C55.6282 21.756 55.3622 20.51 55.0822 19.446H55.0262C54.7742 20.538 54.4942 21.756 54.2282 22.792L52.9262 28H50.3782ZM52.5762 25.606V23.674H57.6162V25.606H52.5762Z" fill="black"/>
<path d="M60.9364 28V17.57H64.7584C66.9844 17.57 68.8324 18.34 68.8324 20.86C68.8324 23.31 66.9844 24.332 64.7584 24.332H63.4424V28H60.9364ZM63.4424 22.358H64.5624C65.7524 22.358 66.3964 21.84 66.3964 20.86C66.3964 19.88 65.7524 19.558 64.5624 19.558H63.4424V22.358ZM66.5644 28L64.3104 23.688L66.0044 22.05L69.3644 28H66.5644Z" fill="black"/>
<path d="M72.4681 28V19.656H69.654V17.57H77.8021V19.656H74.974V28H72.4681Z" fill="black"/>
<path d="M79.4071 28V17.57H86.0151V19.656H81.9131V21.588H85.3991V23.688H81.9131V25.9H86.1691V28H79.4071Z" fill="black"/>
<path d="M88.2255 28V17.57H92.0475C94.2735 17.57 96.1215 18.34 96.1215 20.86C96.1215 23.31 94.2735 24.332 92.0475 24.332H90.7315V28H88.2255ZM90.7315 22.358H91.8515C93.0415 22.358 93.6855 21.84 93.6855 20.86C93.6855 19.88 93.0415 19.558 91.8515 19.558H90.7315V22.358ZM93.8535 28L91.5995 23.688L93.2935 22.05L96.6535 28H93.8535Z" fill="black"/>
<rect x="113" y="2" width="76.9882" height="22.59" rx="11.295" fill="black"/>
<path d="M123.74 17.09V10.79C123.74 9.7 124.25 9 125.33 9C125.66 9 125.98 9.08 126.23 9.18L126.04 9.88C125.83 9.79 125.62 9.74 125.42 9.74C124.9 9.74 124.65 10.1 124.65 10.81V17.09H123.74ZM123 12.4V11.72L123.79 11.66H125.81V12.4H123Z" fill="white"/>
<path d="M128.825 17.23C127.485 17.23 126.305 16.18 126.305 14.39C126.305 12.57 127.485 11.53 128.825 11.53C130.155 11.53 131.335 12.57 131.335 14.39C131.335 16.18 130.155 17.23 128.825 17.23ZM128.825 16.47C129.765 16.47 130.395 15.63 130.395 14.39C130.395 13.13 129.765 12.29 128.825 12.29C127.875 12.29 127.245 13.13 127.245 14.39C127.245 15.63 127.875 16.47 128.825 16.47Z" fill="white"/>
<path d="M132.78 17.09V11.66H133.52L133.61 12.65H133.64C134.01 11.96 134.57 11.53 135.18 11.53C135.42 11.53 135.58 11.56 135.76 11.64L135.59 12.44C135.4 12.38 135.28 12.35 135.06 12.35C134.61 12.35 134.05 12.68 133.69 13.61V17.09H132.78Z" fill="white"/>
<path d="M138.973 17.09V9.76H141.143C142.633 9.76 143.663 10.27 143.663 11.56C143.663 12.28 143.283 12.92 142.593 13.15V13.19C143.473 13.36 144.083 13.95 144.083 14.95C144.083 16.38 142.943 17.09 141.313 17.09H138.973ZM139.903 12.88H140.983C142.243 12.88 142.753 12.42 142.753 11.67C142.753 10.81 142.173 10.49 141.033 10.49H139.903V12.88ZM139.903 16.36H141.183C142.433 16.36 143.183 15.91 143.183 14.92C143.183 14.01 142.463 13.59 141.183 13.59H139.903V16.36Z" fill="white"/>
<path d="M147.655 17.23C146.205 17.23 145.055 16.17 145.055 14.39C145.055 12.62 146.245 11.53 147.495 11.53C148.875 11.53 149.655 12.52 149.655 14.08C149.655 14.27 149.645 14.46 149.615 14.6H145.955C146.025 15.75 146.725 16.5 147.765 16.5C148.285 16.5 148.715 16.33 149.115 16.06L149.445 16.67C148.965 16.98 148.395 17.23 147.655 17.23ZM145.945 13.94H148.855C148.855 12.85 148.365 12.26 147.505 12.26C146.745 12.26 146.065 12.87 145.945 13.94Z" fill="white"/>
<path d="M152.696 19.59C151.366 19.59 150.446 19.07 150.446 18.14C150.446 17.68 150.746 17.23 151.246 16.91V16.87C150.966 16.69 150.756 16.4 150.756 15.97C150.756 15.52 151.076 15.17 151.366 14.97V14.93C151.006 14.64 150.646 14.12 150.646 13.47C150.646 12.27 151.586 11.53 152.686 11.53C152.996 11.53 153.266 11.59 153.456 11.66H155.346V12.37H154.236C154.496 12.62 154.676 13.02 154.676 13.49C154.676 14.65 153.796 15.37 152.686 15.37C152.426 15.37 152.126 15.31 151.876 15.19C151.686 15.35 151.526 15.54 151.526 15.83C151.526 16.18 151.756 16.43 152.486 16.43H153.546C154.806 16.43 155.436 16.82 155.436 17.72C155.436 18.73 154.366 19.59 152.696 19.59ZM152.686 14.76C153.316 14.76 153.846 14.25 153.846 13.47C153.846 12.67 153.326 12.19 152.686 12.19C152.046 12.19 151.526 12.66 151.526 13.47C151.526 14.25 152.056 14.76 152.686 14.76ZM152.816 18.97C153.866 18.97 154.546 18.42 154.546 17.86C154.546 17.35 154.156 17.18 153.446 17.18H152.506C152.296 17.18 152.046 17.16 151.796 17.09C151.406 17.37 151.246 17.7 151.246 18.01C151.246 18.6 151.836 18.97 152.816 18.97Z" fill="white"/>
<path d="M156.51 17.09V11.66H157.42V17.09H156.51ZM156.97 10.54C156.61 10.54 156.36 10.31 156.36 9.93C156.36 9.58 156.61 9.35 156.97 9.35C157.32 9.35 157.58 9.58 157.58 9.93C157.58 10.31 157.32 10.54 156.97 10.54Z" fill="white"/>
<path d="M159.264 17.09V11.66H160.004L160.094 12.45H160.124C160.634 11.94 161.194 11.53 161.944 11.53C163.084 11.53 163.604 12.27 163.604 13.65V17.09H162.684V13.77C162.684 12.75 162.374 12.32 161.654 12.32C161.104 12.32 160.714 12.61 160.174 13.15V17.09H159.264Z" fill="white"/>
<path d="M165.368 17.09V11.66H166.108L166.198 12.45H166.228C166.738 11.94 167.298 11.53 168.048 11.53C169.188 11.53 169.708 12.27 169.708 13.65V17.09H168.788V13.77C168.788 12.75 168.478 12.32 167.758 12.32C167.208 12.32 166.818 12.61 166.278 13.15V17.09H165.368Z" fill="white"/>
<path d="M173.661 17.23C172.211 17.23 171.061 16.17 171.061 14.39C171.061 12.62 172.251 11.53 173.501 11.53C174.881 11.53 175.661 12.52 175.661 14.08C175.661 14.27 175.651 14.46 175.621 14.6H171.961C172.031 15.75 172.731 16.5 173.771 16.5C174.291 16.5 174.721 16.33 175.121 16.06L175.451 16.67C174.971 16.98 174.401 17.23 173.661 17.23ZM171.951 13.94H174.861C174.861 12.85 174.371 12.26 173.511 12.26C172.751 12.26 172.071 12.87 171.951 13.94Z" fill="white"/>
<path d="M177.008 17.09V11.66H177.748L177.838 12.65H177.868C178.238 11.96 178.798 11.53 179.408 11.53C179.648 11.53 179.808 11.56 179.988 11.64L179.818 12.44C179.628 12.38 179.508 12.35 179.288 12.35C178.838 12.35 178.278 12.68 177.918 13.61V17.09H177.008Z" fill="white"/>
</svg>
