<svg width="221" height="120" viewBox="0 0 221 120" fill="none" xmlns="http://www.w3.org/2000/svg">
<path d="M2.752 25.0001V1.16005H8.48V10.6001H8.576L15.328 1.16005H21.6L14.4 10.7281L22.944 25.0001H16.704L11.072 15.2401L8.48 18.7601V25.0001H2.752Z" fill="black"/>
<path d="M21.8065 25.0001L29.1985 1.16005H36.0465L43.4385 25.0001H37.4225L34.4465 13.0961C33.8065 10.7281 33.1985 7.88005 32.5585 5.44806H32.4305C31.8545 7.94405 31.2145 10.7281 30.6065 13.0961L27.6305 25.0001H21.8065ZM26.8305 19.5281V15.1121H38.3505V19.5281H26.8305Z" fill="black"/>
<path d="M45.9395 25.0001V1.16005H51.7635L57.6835 12.5841L60.0195 17.8641H60.1795C59.8915 15.3361 59.4115 11.9121 59.4115 9.06405V1.16005H64.8515V25.0001H59.0275L53.1395 13.5121L50.8035 8.29605H50.6435C50.8995 10.9521 51.3795 14.2161 51.3795 17.0961V25.0001H45.9395Z" fill="black"/>
<path d="M74.985 25.0001V5.92805H68.553V1.16005H87.177V5.92805H80.713V25.0001H74.985Z" fill="black"/>
<path d="M86.1503 25.0001L93.5423 1.16005H100.39L107.782 25.0001H101.766L98.7903 13.0961C98.1503 10.7281 97.5423 7.88005 96.9023 5.44806H96.7742C96.1982 7.94405 95.5582 10.7281 94.9502 13.0961L91.9743 25.0001H86.1503ZM91.1742 19.5281V15.1121H102.694V19.5281H91.1742Z" fill="black"/>
<path d="M110.283 25.0001V1.16005H116.107L122.027 12.5841L124.363 17.8641H124.523C124.235 15.3361 123.755 11.9121 123.755 9.06405V1.16005H129.195V25.0001H123.371L117.483 13.5121L115.147 8.29605H114.987C115.243 10.9521 115.723 14.2161 115.723 17.0961V25.0001H110.283Z" fill="black"/>
<path d="M136.481 16.3601L135.649 5.54405L135.457 0.456055H141.185L140.993 5.54405L140.161 16.3601H136.481ZM138.305 25.4481C136.353 25.4481 134.945 23.8801 134.945 21.8961C134.945 19.9121 136.353 18.3761 138.305 18.3761C140.289 18.3761 141.697 19.9121 141.697 21.8961C141.697 23.8801 140.289 25.4481 138.305 25.4481Z" fill="black"/>
<path d="M12.832 63.4481C6.784 63.4481 1.664 59.2881 1.664 51.2241C1.664 43.2881 6.976 38.7441 13.024 38.7441C16.128 38.7441 18.624 40.1841 20.256 41.8481L17.28 45.4961C16.064 44.4081 14.816 43.6401 13.12 43.6401C10.048 43.6401 7.52 46.392 7.52 51.0321C7.52 55.7681 9.696 58.5201 13.056 58.5201C14.976 58.5201 16.48 57.5601 17.6 56.3441L20.608 59.9281C18.592 62.2641 15.936 63.4481 12.832 63.4481Z" fill="black"/>
<path d="M24.0958 63.0001V39.16H30.2718L34.0478 49.4641C34.5278 50.8401 34.9117 52.3441 35.3597 53.7841H35.5198C35.9998 52.3441 36.3837 50.8401 36.8317 49.4641L40.4798 39.16H46.6878V63.0001H41.4717V54.8401C41.4717 52.4721 41.9198 48.9201 42.2398 46.5841H42.0798L40.0957 52.2801L36.8958 60.9841H33.7598L30.5278 52.2801L28.6078 46.5841H28.4798C28.7678 48.9201 29.2158 52.4721 29.2158 54.8401V63.0001H24.0958Z" fill="black"/>
<path d="M59.5503 63.4481C56.4463 63.4481 53.1183 62.2961 50.6543 60.0241L53.9183 56.0881C55.5823 57.5281 57.7902 58.5201 59.6782 58.5201C61.7902 58.5201 62.7822 57.7201 62.7822 56.4401C62.7822 55.0641 61.4702 54.6161 59.4222 53.7521L56.3823 52.4721C53.8863 51.4801 51.5503 49.4001 51.5503 45.9441C51.5503 41.9441 55.1343 38.7441 60.1903 38.7441C62.9423 38.7441 65.8542 39.8001 67.9342 41.8801L65.0863 45.4641C63.5183 44.2801 62.0463 43.6401 60.1903 43.6401C58.4303 43.6401 57.3743 44.3441 57.3743 45.5921C57.3743 46.9361 58.8463 47.4481 60.9583 48.2801L63.9342 49.4641C66.8782 50.6481 68.6383 52.6321 68.6383 55.9921C68.6383 59.9601 65.3103 63.4481 59.5503 63.4481Z" fill="black"/>
<path d="M87.3002 63.4481C84.1962 63.4481 80.8683 62.2961 78.4043 60.0241L81.6683 56.0881C83.3323 57.5281 85.5403 58.5201 87.4283 58.5201C89.5403 58.5201 90.5322 57.7201 90.5322 56.4401C90.5322 55.0641 89.2202 54.6161 87.1722 53.7521L84.1322 52.4721C81.6362 51.4801 79.3002 49.4001 79.3002 45.9441C79.3002 41.9441 82.8842 38.7441 87.9402 38.7441C90.6922 38.7441 93.6042 39.8001 95.6842 41.8801L92.8363 45.4641C91.2683 44.2801 89.7962 43.6401 87.9402 43.6401C86.1802 43.6401 85.1243 44.3441 85.1243 45.5921C85.1243 46.9361 86.5963 47.4481 88.7083 48.2801L91.6842 49.4641C94.6282 50.6481 96.3883 52.6321 96.3883 55.9921C96.3883 59.9601 93.0602 63.4481 87.3002 63.4481Z" fill="black"/>
<path d="M103.985 63.0001V43.9281H97.553V39.16H116.177V43.9281H109.713V63.0001H103.985Z" fill="black"/>
<path d="M115.15 63.0001L122.542 39.16H129.39L136.782 63.0001H130.766L127.79 51.0961C127.15 48.7281 126.542 45.8801 125.902 43.4481H125.774C125.198 45.944 124.558 48.7281 123.95 51.0961L120.974 63.0001H115.15ZM120.174 57.5281V53.1121H131.694V57.5281H120.174Z" fill="black"/>
<path d="M139.283 63.0001V39.16H148.019C153.107 39.16 157.331 40.9201 157.331 46.6801C157.331 52.2801 153.107 54.6161 148.019 54.6161H145.011V63.0001H139.283ZM145.011 50.1041H147.571C150.291 50.1041 151.763 48.9201 151.763 46.6801C151.763 44.4401 150.291 43.7041 147.571 43.7041H145.011V50.1041ZM152.147 63.0001L146.995 53.1441L150.867 49.4001L158.547 63.0001H152.147Z" fill="black"/>
<path d="M165.641 63.0001V43.9281H159.209V39.16H177.833V43.9281H171.369V63.0001H165.641Z" fill="black"/>
<path d="M181.502 63.0001V39.16H196.606V43.9281H187.23V48.3441H195.198V53.1441H187.23V58.2001H196.958V63.0001H181.502Z" fill="black"/>
<path d="M201.658 63.0001V39.16H210.394C215.482 39.16 219.706 40.9201 219.706 46.6801C219.706 52.2801 215.482 54.6161 210.394 54.6161H207.386V63.0001H201.658ZM207.386 50.1041H209.946C212.666 50.1041 214.138 48.9201 214.138 46.6801C214.138 44.4401 212.666 43.7041 209.946 43.7041H207.386V50.1041ZM214.522 63.0001L209.37 53.1441L213.242 49.4001L220.922 63.0001H214.522Z" fill="black"/>
<rect y="84" width="126.579" height="35.062" rx="17.531" fill="black"/>
<path d="M13.332 106.562V95.222C13.332 93.26 14.25 92 16.194 92C16.788 92 17.364 92.144 17.814 92.324L17.472 93.584C17.094 93.422 16.716 93.332 16.356 93.332C15.42 93.332 14.97 93.98 14.97 95.258V106.562H13.332ZM12 98.12V96.896L13.422 96.788H17.058V98.12H12Z" fill="white"/>
<path d="M22.4854 106.814C20.0734 106.814 17.9494 104.924 17.9494 101.702C17.9494 98.426 20.0734 96.554 22.4854 96.554C24.8794 96.554 27.0034 98.426 27.0034 101.702C27.0034 104.924 24.8794 106.814 22.4854 106.814ZM22.4854 105.446C24.1774 105.446 25.3114 103.934 25.3114 101.702C25.3114 99.434 24.1774 97.922 22.4854 97.922C20.7754 97.922 19.6414 99.434 19.6414 101.702C19.6414 103.934 20.7754 105.446 22.4854 105.446Z" fill="white"/>
<path d="M29.6034 106.562V96.788H30.9354L31.0974 98.57H31.1514C31.8174 97.328 32.8254 96.554 33.9234 96.554C34.3554 96.554 34.6434 96.608 34.9674 96.752L34.6614 98.192C34.3194 98.084 34.1034 98.03 33.7074 98.03C32.8974 98.03 31.8894 98.624 31.2414 100.298V106.562H29.6034Z" fill="white"/>
<path d="M40.7513 106.562V93.368H44.6573C47.3393 93.368 49.1933 94.286 49.1933 96.608C49.1933 97.904 48.5093 99.056 47.2673 99.47V99.542C48.8513 99.848 49.9493 100.91 49.9493 102.71C49.9493 105.284 47.8973 106.562 44.9633 106.562H40.7513ZM42.4253 98.984H44.3693C46.6373 98.984 47.5553 98.156 47.5553 96.806C47.5553 95.258 46.5113 94.682 44.4593 94.682H42.4253V98.984ZM42.4253 105.248H44.7293C46.9793 105.248 48.3293 104.438 48.3293 102.656C48.3293 101.018 47.0333 100.262 44.7293 100.262H42.4253V105.248Z" fill="white"/>
<path d="M56.3794 106.814C53.7694 106.814 51.6994 104.906 51.6994 101.702C51.6994 98.516 53.8414 96.554 56.0914 96.554C58.5754 96.554 59.9794 98.336 59.9794 101.144C59.9794 101.486 59.9614 101.828 59.9074 102.08H53.3194C53.4454 104.15 54.7054 105.5 56.5774 105.5C57.5134 105.5 58.2874 105.194 59.0074 104.708L59.6014 105.806C58.7374 106.364 57.7114 106.814 56.3794 106.814ZM53.3014 100.892H58.5394C58.5394 98.93 57.6574 97.868 56.1094 97.868C54.7414 97.868 53.5174 98.966 53.3014 100.892Z" fill="white"/>
<path d="M65.4521 111.062C63.0581 111.062 61.4021 110.126 61.4021 108.452C61.4021 107.624 61.9421 106.814 62.8421 106.238V106.166C62.3381 105.842 61.9601 105.32 61.9601 104.546C61.9601 103.736 62.5361 103.106 63.0581 102.746V102.674C62.4101 102.152 61.7621 101.216 61.7621 100.046C61.7621 97.886 63.4541 96.554 65.4341 96.554C65.9921 96.554 66.4781 96.662 66.8201 96.788H70.2221V98.066H68.2241C68.6921 98.516 69.0161 99.236 69.0161 100.082C69.0161 102.17 67.4321 103.466 65.4341 103.466C64.9661 103.466 64.4261 103.358 63.9761 103.142C63.6341 103.43 63.3461 103.772 63.3461 104.294C63.3461 104.924 63.7601 105.374 65.0741 105.374H66.9821C69.2501 105.374 70.3841 106.076 70.3841 107.696C70.3841 109.514 68.4581 111.062 65.4521 111.062ZM65.4341 102.368C66.5681 102.368 67.5221 101.45 67.5221 100.046C67.5221 98.606 66.5861 97.742 65.4341 97.742C64.2821 97.742 63.3461 98.588 63.3461 100.046C63.3461 101.45 64.3001 102.368 65.4341 102.368ZM65.6681 109.946C67.5581 109.946 68.7821 108.956 68.7821 107.948C68.7821 107.03 68.0801 106.724 66.8021 106.724H65.1101C64.7321 106.724 64.2821 106.688 63.8321 106.562C63.1301 107.066 62.8421 107.66 62.8421 108.218C62.8421 109.28 63.9041 109.946 65.6681 109.946Z" fill="white"/>
<path d="M72.3183 106.562V96.788H73.9563V106.562H72.3183ZM73.1463 94.772C72.4983 94.772 72.0483 94.358 72.0483 93.674C72.0483 93.044 72.4983 92.63 73.1463 92.63C73.7763 92.63 74.2443 93.044 74.2443 93.674C74.2443 94.358 73.7763 94.772 73.1463 94.772Z" fill="white"/>
<path d="M77.2753 106.562V96.788H78.6073L78.7693 98.21H78.8233C79.7413 97.292 80.7493 96.554 82.0993 96.554C84.1513 96.554 85.0873 97.886 85.0873 100.37V106.562H83.4313V100.586C83.4313 98.75 82.8733 97.976 81.5773 97.976C80.5873 97.976 79.8853 98.498 78.9133 99.47V106.562H77.2753Z" fill="white"/>
<path d="M88.2616 106.562V96.788H89.5936L89.7556 98.21H89.8096C90.7276 97.292 91.7356 96.554 93.0856 96.554C95.1376 96.554 96.0736 97.886 96.0736 100.37V106.562H94.4176V100.586C94.4176 98.75 93.8596 97.976 92.5636 97.976C91.5736 97.976 90.8716 98.498 89.8996 99.47V106.562H88.2616Z" fill="white"/>
<path d="M103.19 106.814C100.58 106.814 98.51 104.906 98.51 101.702C98.51 98.516 100.652 96.554 102.902 96.554C105.386 96.554 106.79 98.336 106.79 101.144C106.79 101.486 106.772 101.828 106.718 102.08H100.13C100.256 104.15 101.516 105.5 103.388 105.5C104.324 105.5 105.098 105.194 105.818 104.708L106.412 105.806C105.548 106.364 104.522 106.814 103.19 106.814ZM100.112 100.892H105.35C105.35 98.93 104.468 97.868 102.92 97.868C101.552 97.868 100.328 98.966 100.112 100.892Z" fill="white"/>
<path d="M109.215 106.562V96.788H110.547L110.709 98.57H110.763C111.429 97.328 112.437 96.554 113.535 96.554C113.967 96.554 114.255 96.608 114.579 96.752L114.273 98.192C113.931 98.084 113.715 98.03 113.319 98.03C112.509 98.03 111.501 98.624 110.853 100.298V106.562H109.215Z" fill="white"/>
</svg>
